<!-- <svg width="400" height="100" xmlns="http://www.w3.org/2000/svg">
        <defs>
            <style type="text/css">
                .text {
                    font-family: Arial, sans-serif;
                    font-size: 48px;
                    font-weight: bold;
                    fill: #2c3e50;
                    text-transform: uppercase;
                    letter-spacing: 4px;
                    text-shadow: 2px 2px 8px rgba(0, 0, 0, 0.1);
                }
            </style>
        </defs>
        <text x="50%" y="50%" dominant-baseline="middle" text-anchor="middle" class="text">
            Strontium
        </text>
    </svg> -->
    <svg viewBox="0 0 640 400" data-background-color="#ff851b" preserveAspectRatio="xMidYMid meet" height="400" width="640" xmlns="http://www.w3.org/2000/svg" xmlns:xlink="http://www.w3.org/1999/xlink"><rect width="640" height="400" x="0" y="0" opacity="1" fill="#ff851b" data-fill-palette-color="background" id="background"></rect><g id="tight-bounds" transform="matrix(1,0,0,1,122.24000000000001,130.48314466527728)"><svg viewBox="0 0 395.52 139.0337106694454" height="139.0337106694454" width="395.52"><g><svg viewBox="0 0 395.52 139.0337106694454" height="139.0337106694454" width="395.52"><g transform="matrix(1,0,0,1,0,85.92841094955745)"><svg viewBox="0 0 395.52 53.10529971988796" height="53.10529971988796" width="395.52"><g id="textblocktransform"><svg viewBox="0 0 395.52 53.10529971988796" height="53.10529971988796" width="395.52" id="textblock"><g><svg viewBox="0 0 395.52 53.10529971988796" height="53.10529971988796" width="395.52"><g transform="matrix(1,0,0,1,0,0)"><svg width="395.52" viewBox="1.4500000476837158 -35.45000076293945 267.72998046875 35.95000076293945" height="53.10529971988796" data-palette-color="#5e360f"><path d="M3.8-12.2L3.8-12.2Q4.75-11.45 7.08-10.15 9.4-8.85 11.53-8.85 13.65-8.85 13.65-10.5L13.65-10.5Q13.65-11.25 13.05-11.83 12.45-12.4 10.85-13.15 9.25-13.9 8.45-14.33 7.65-14.75 6.33-15.73 5-16.7 4.3-17.75L4.3-17.75Q2.3-20.6 2.3-25 2.3-29.4 5.58-32.43 8.85-35.45 14.15-35.45L14.15-35.45Q17.75-35.45 20.8-34.68 23.85-33.9 23.95-32.65L23.95-32.65Q23.95-32.5 23.95-32.35L23.95-32.35Q23.95-30.6 22.85-27.93 21.75-25.25 21.3-24.95L21.3-24.95Q18.1-26.6 15.58-26.6 13.05-26.6 13.05-24.8L13.05-24.8Q13.05-23.7 14.9-22.85L14.9-22.85Q15.3-22.65 16.05-22.3 16.8-21.95 17.78-21.48 18.75-21 19.88-20.28 21-19.55 22.3-18.35L22.3-18.35Q24.95-15.85 24.95-11.75L24.95-11.75Q24.95-6.4 22-3 19.05 0.4 12.9 0.5L12.9 0.5Q9.9 0.5 7.48 0 5.05-0.5 3.25-1.95 1.45-3.4 1.45-5.45 1.45-7.5 2.2-9.53 2.95-11.55 3.8-12.2ZM44.1-25.9L44.1-0.8Q44.1 0.2 39.15 0.2 34.2 0.2 34.2-0.8L34.2-0.8 34.2-25.9 28.2-25.9Q27.35-25.9 27-28.2L27-28.2Q26.85-29.3 26.85-30.45 26.85-31.6 27-32.7L27-32.7Q27.35-35 28.2-35L28.2-35 49.95-35Q50.8-35 51.15-32.7L51.15-32.7Q51.3-31.6 51.3-30.45 51.3-29.3 51.15-28.2L51.15-28.2Q50.8-25.9 49.95-25.9L49.95-25.9 44.1-25.9ZM63.7-12.05L63.7-0.7Q63.7 0.1 58.95 0.1L58.95 0.1Q54.15 0.1 54.15-0.65L54.15-0.65 54.15-33.25Q54.15-35 56-35L56-35 65.55-35Q78.7-35 78.7-24.75L78.7-24.75Q78.7-21.65 77.5-19.13 76.3-16.6 74.09-15.1L74.09-15.1 80.4-4.6Q80-3.4 77.8-1.85L77.8-1.85Q74.8 0.3 72.84 0.3 70.9 0.3 69.95-1.1L69.95-1.1 65.25-12.05 63.7-12.05ZM64.75-26.15L63.7-26.15 63.7-18.65 63.95-18.65Q68.7-18.65 68.7-22.6L68.7-22.6Q68.7-24.4 67.77-25.28 66.84-26.15 64.75-26.15L64.75-26.15ZM98.52 0.5Q91.49 0.5 87.07-4.1 82.64-8.7 82.64-17.53 82.64-26.35 87.12-30.9 91.59-35.45 98.67-35.45 105.74-35.45 110.09-30.98 114.44-26.5 114.44-17.43 114.44-8.35 109.99-3.93 105.54 0.5 98.52 0.5ZM98.54-25.85Q96.14-25.85 94.52-23.65 92.89-21.45 92.89-17.48 92.89-13.5 94.44-11.38 95.99-9.25 98.52-9.25 101.04-9.25 102.62-11.4 104.19-13.55 104.19-17.55 104.19-21.55 102.57-23.7 100.94-25.85 98.54-25.85ZM145.84-34.05L145.84-1.1Q145.84-0.05 141.14-0.05 136.44-0.05 136.04-0.8L136.04-0.8 127.69-16.4 127.69-0.85Q127.69 0.05 123.07 0.05 118.44 0.05 118.44-0.85L118.44-0.85 118.44-34.3Q118.44-35.05 122.39-35.05L122.39-35.05Q123.94-35.05 126.02-34.77 128.09-34.5 128.54-33.75L128.54-33.75 136.54-18.35 136.54-34.05Q136.54-35 141.19-35 145.84-35 145.84-34.05L145.84-34.05ZM165.89-25.9L165.89-0.8Q165.89 0.2 160.94 0.2 155.99 0.2 155.99-0.8L155.99-0.8 155.99-25.9 149.99-25.9Q149.14-25.9 148.79-28.2L148.79-28.2Q148.64-29.3 148.64-30.45 148.64-31.6 148.79-32.7L148.79-32.7Q149.14-35 149.99-35L149.99-35 171.74-35Q172.59-35 172.94-32.7L172.94-32.7Q173.09-31.6 173.09-30.45 173.09-29.3 172.94-28.2L172.94-28.2Q172.59-25.9 171.74-25.9L171.74-25.9 165.89-25.9ZM175.79-8.6L179.24-8.6 179.24-26.4 175.69-26.4Q174.84-26.4 174.49-28.55L174.49-28.55Q174.34-29.6 174.34-30.7 174.34-31.8 174.49-32.85L174.49-32.85Q174.84-35 175.69-35L175.69-35 192.49-35Q193.34-35 193.64-32.85L193.64-32.85Q193.84-31.8 193.84-30.7 193.84-29.6 193.64-28.55L193.64-28.55Q193.34-26.4 192.49-26.4L192.49-26.4 189.14-26.4 189.14-8.6 192.64-8.6Q193.49-8.6 193.84-6.45L193.84-6.45Q194.04-5.4 194.04-4.3 194.04-3.2 193.84-2.15L193.84-2.15Q193.49 0 192.64 0L192.64 0 175.79 0Q174.94 0 174.64-2.15L174.64-2.15Q174.44-3.2 174.44-4.3 174.44-5.4 174.64-6.45L174.64-6.45Q174.94-8.6 175.79-8.6L175.79-8.6ZM213.73-11.4L213.73-34Q213.73-35 219.16-35 224.58-35 224.58-34L224.58-34 224.58-11.05Q224.58-5.95 220.93-2.73 217.28 0.5 210.86 0.5 204.43 0.5 200.41-2.83 196.38-6.15 196.38-11.8L196.38-11.8 196.38-33.95Q196.38-34.95 201.81-34.95 207.23-34.95 207.23-33.95L207.23-33.95 207.23-11.4Q207.23-10.4 208.28-9.8L208.28-9.8Q209.38-9.2 210.58-9.2 211.78-9.2 212.76-9.75 213.73-10.3 213.73-11.4L213.73-11.4ZM263.78 0.05L263.78 0.05Q259.33 0.05 259.33-0.95L259.33-0.95 258.28-21 252.18-0.7Q251.98-0.1 248.78-0.1 245.58-0.1 245.48-0.65L245.48-0.65 239.18-21.2 238.48-1.25Q238.43-0.5 236.58-0.23 234.73 0.05 233.51 0.05 232.28 0.05 231.13-0.1L231.13-0.1Q228.73-0.45 228.78-1.35L228.78-1.35 229.93-33.85Q229.93-35.05 236.03-35.05L236.03-35.05Q237.83-35.05 240.43-34.77 243.03-34.5 243.33-33.7L243.33-33.7 248.93-17.95 253.83-33.75Q254.28-35.05 260.73-35.05L260.73-35.05Q262.58-35.05 265.16-34.77 267.73-34.5 267.73-33.8L267.73-33.8 269.18-1Q269.18-0.45 267.23-0.2 265.28 0.05 263.78 0.05Z" opacity="1" transform="matrix(1,0,0,1,0,0)" fill="#5e360f" class="wordmark-text-0" data-fill-palette-color="primary" id="text-0"></path></svg></g></svg></g></svg></g></svg></g><g transform="matrix(1,0,0,1,154.48203181516462,0)"><svg viewBox="0 0 86.55593636967073 73.39152421288517" height="73.39152421288517" width="86.55593636967073"><g><svg xmlns="http://www.w3.org/2000/svg" xmlns:xlink="http://www.w3.org/1999/xlink" version="1.1" x="0" y="0" viewBox="10.001710891723633 17.854999542236328 79.89657592773438 67.7449951171875" style="enable-background:new 0 0 100 100;" xml:space="preserve" height="73.39152421288517" width="86.55593636967073" class="icon-icon-0" data-fill-palette-color="accent" id="icon-0"><g fill="#a63b08" data-fill-palette-color="accent"><path d="M83.9 23C78.9 18.1 71.5 16.7 61.9 18.8 57.5 19.8 53.5 21.8 50.4 24.7 50.2 24.8 50.1 25 49.9 25.2 49.5 24.8 49.1 24.4 48.6 24 45.7 21.5 42 19.8 38 18.9 28.4 16.7 21 18.1 16 23 8.5 30.2 9.8 42.2 10.7 47 10.7 47.3 10.8 47.5 10.8 47.8 10.9 48.5 11 49.3 11.2 50.2 13.7 60.4 18.3 66.7 22.3 70.5 21.5 73.1 20.9 75.7 20.5 78.4 20.1 82 22.6 85.2 26.2 85.6H27C30.2 85.6 33 83.2 33.4 79.9 33.5 78.9 33.7 78 33.9 77 37 78.1 43.1 79.9 50.6 79.9 55.3 79.9 60.5 79.2 66 77.2 66.2 78 66.3 78.8 66.4 79.6 66.8 82.9 69.6 85.3 72.8 85.3H73.6C77.2 84.9 79.7 81.6 79.3 78.1 79 75.6 78.4 73 77.6 70.5 81.6 66.7 86.2 60.4 88.7 50.2 88.9 49.3 89 48.5 89.1 47.8 89.1 47.5 89.2 47.3 89.2 47 90.1 42.1 91.4 30.2 83.9 23M15.4 41.2C15.2 42.2 14.5 42 14.5 42 13.7 41.6 14.5 40.4 14.5 40.4 15.6 40 15.4 41.2 15.4 41.2M18.8 26.2C20 25.8 19.7 27 19.7 27 19.5 28 18.8 27.8 18.8 27.8 17.9 27.3 18.8 26.2 18.8 26.2M17.8 53.2C17.6 54.2 16.9 54 16.9 54 16.1 53.6 16.9 52.4 16.9 52.4 18 52 17.8 53.2 17.8 53.2M18.8 34.1C18 33.7 18.8 32.5 18.8 32.5 20 32.1 19.7 33.3 19.7 33.3 19.6 34.3 18.8 34.1 18.8 34.1M20.4 46C20.2 47 19.5 46.8 19.5 46.8 18.7 46.4 19.5 45.2 19.5 45.2 20.6 44.8 20.4 46 20.4 46M70.9 25.3C72.1 24.9 71.8 26.1 71.8 26.1 71.6 27.1 70.9 26.9 70.9 26.9 70 26.5 70.9 25.3 70.9 25.3M63.7 23.6C64.9 23.2 64.6 24.4 64.6 24.4 64.4 25.4 63.7 25.2 63.7 25.2 62.8 24.8 63.7 23.6 63.7 23.6M60.4 27.2C61.6 26.8 61.3 28 61.3 28 61.1 29 60.4 28.8 60.4 28.8 59.5 28.4 60.4 27.2 60.4 27.2M54.9 27.2C56.1 26.8 55.8 28 55.8 28 55.6 29 54.9 28.8 54.9 28.8 54 28.4 54.9 27.2 54.9 27.2M54.9 45.2C56.1 44.8 55.8 46 55.8 46 55.6 47 54.9 46.8 54.9 46.8 54 46.4 54.9 45.2 54.9 45.2M52.9 33.4C54.1 33 53.8 34.2 53.8 34.2 53.6 35.2 52.9 35 52.9 35 52 34.5 52.9 33.4 52.9 33.4M49.6 39.5C50.8 39.1 50.5 40.3 50.5 40.3 50.3 41.3 49.6 41.1 49.6 41.1 48.8 40.7 49.6 39.5 49.6 39.5M46.5 31.6C47.7 31.2 47.4 32.4 47.4 32.4 47.2 33.4 46.5 33.2 46.5 33.2 45.6 32.8 46.5 31.6 46.5 31.6M46.5 45.2C47.7 44.8 47.4 46 47.4 46 47.2 47 46.5 46.8 46.5 46.8 45.6 46.4 46.5 45.2 46.5 45.2M43.5 25.3C44.7 24.9 44.4 26.1 44.4 26.1 44.2 27.1 43.5 26.9 43.5 26.9 42.6 26.5 43.5 25.3 43.5 25.3M37.4 25.3C38.6 24.9 38.3 26.1 38.3 26.1 38.1 27.1 37.4 26.9 37.4 26.9 36.5 26.5 37.4 25.3 37.4 25.3M31.3 22.7C32.5 22.3 32.2 23.5 32.2 23.5 32 24.5 31.3 24.3 31.3 24.3 30.4 23.9 31.3 22.7 31.3 22.7M26 26.2C27.2 25.8 26.9 27 26.9 27 26.7 28 26 27.8 26 27.8 25.1 27.3 26 26.2 26 26.2M23.1 56.1C22.9 57.1 22.2 56.9 22.2 56.9 21.4 56.5 22.2 55.3 22.2 55.3 23.3 54.9 23.1 56.1 23.1 56.1M24.4 64C24.2 65 23.5 64.8 23.5 64.8 22.7 64.4 23.5 63.2 23.5 63.2 24.6 62.8 24.4 64 24.4 64M27.3 69C26.5 68.6 27.3 67.4 27.3 67.4 28.5 67 28.2 68.2 28.2 68.2 28.1 69.2 27.3 69 27.3 69M28.9 76C28.7 77 28 76.8 28 76.8 27.2 76.4 28 75.2 28 75.2 29.2 74.8 28.9 76 28.9 76M28.2 57.4C26.5 54.9 24.9 51.6 23.8 47.1 23.8 46.9 23.7 46.5 23.7 46.1 23.6 45.6 23.6 45.1 23.5 44.6 22.6 40 22.7 34.5 25 32.3 27.2 30.1 32.4 30.9 35.2 31.5 37.2 31.9 38.9 32.8 40.2 33.9 41.4 34.9 42.3 36.1 42.8 37.3 39.6 41 33.3 48.4 28.2 57.4M40.8 46.8C40 46.4 40.8 45.2 40.8 45.2 42 44.8 41.7 46 41.7 46 41.6 47 40.8 46.8 40.8 46.8M41.1 53.2C40.9 54.2 40.2 54 40.2 54 39.4 53.6 40.2 52.4 40.2 52.4 41.3 52 41.1 53.2 41.1 53.2M34.7 56.1C34.5 57.1 33.8 56.9 33.8 56.9 33 56.5 33.8 55.3 33.8 55.3 35 54.9 34.7 56.1 34.7 56.1M33.8 63.1C33 62.7 33.8 61.5 33.8 61.5 35 61.1 34.7 62.3 34.7 62.3 34.6 63.3 33.8 63.1 33.8 63.1M35.4 70.7C35.2 71.7 34.5 71.5 34.5 71.5 33.7 71.1 34.5 69.9 34.5 69.9 35.6 69.5 35.4 70.7 35.4 70.7M43.1 75.1C42.9 76.1 42.2 75.9 42.2 75.9 41.4 75.5 42.2 74.3 42.2 74.3 43.3 73.9 43.1 75.1 43.1 75.1M48.1 71.5C47.9 72.5 47.2 72.3 47.2 72.3 46.4 71.9 47.2 70.7 47.2 70.7 48.3 70.3 48.1 71.5 48.1 71.5M55.1 75.1C54.9 76.1 54.2 75.9 54.2 75.9 53.4 75.5 54.2 74.3 54.2 74.3 55.4 73.9 55.1 75.1 55.1 75.1M60.6 70.7C60.4 71.7 59.7 71.5 59.7 71.5 58.9 71.1 59.7 69.9 59.7 69.9 60.9 69.5 60.6 70.7 60.6 70.7M38.9 64.9C42.3 58.8 46.5 53.1 50 48.9 53.6 53.2 57.9 59 61.2 65.1 51.4 68.5 42.4 66.2 38.9 64.9M59.7 46.1C60.9 45.7 60.6 46.9 60.6 46.9 60.4 47.9 59.7 47.7 59.7 47.7 58.8 47.3 59.7 46.1 59.7 46.1M61.3 54C61.1 55 60.4 54.8 60.4 54.8 59.6 54.4 60.4 53.2 60.4 53.2 61.5 52.8 61.3 54 61.3 54M66 73.4C65.8 74.4 65.1 74.2 65.1 74.2 64.3 73.8 65.1 72.6 65.1 72.6 66.2 72.2 66 73.4 66 73.4M66.6 63.2C66.4 64.2 65.7 64 65.7 64 64.9 63.6 65.7 62.4 65.7 62.4 66.9 61.9 66.6 63.2 66.6 63.2M66.4 56.9C65.6 56.5 66.4 55.3 66.4 55.3 67.6 54.9 67.3 56.1 67.3 56.1 67.1 57.1 66.4 56.9 66.4 56.9M68.6 68.2C68.4 69.2 67.7 69 67.7 69 66.9 68.6 67.7 67.4 67.7 67.4 68.8 67 68.6 68.2 68.6 68.2M74.2 75.1C74 76.1 73.3 75.9 73.3 75.9 72.5 75.5 73.3 74.3 73.3 74.3 74.4 73.9 74.2 75.1 74.2 75.1M75.5 65.8C75.3 66.8 74.6 66.6 74.6 66.6 73.8 66.2 74.6 65 74.6 65 75.8 64.6 75.5 65.8 75.5 65.8M76.5 44.6C76.4 45.1 76.3 45.6 76.3 46.1 76.3 46.5 76.2 46.9 76.2 47.1 75.1 51.6 73.5 54.9 71.9 57.4 66.9 48.6 60.6 41.2 57.2 37.4 57.7 36.3 58.4 35.3 59.4 34.3 60.8 33 62.7 32.1 64.9 31.6 67.7 31 72.8 30.2 75.1 32.4 77.1 34.5 77.3 40 76.5 44.6M77.4 26.9C76.6 26.5 77.4 25.3 77.4 25.3 78.6 24.9 78.3 26.1 78.3 26.1 78.1 27.1 77.4 26.9 77.4 26.9M78 56.9C77.2 56.5 78 55.3 78 55.3 79.2 54.9 78.9 56.1 78.9 56.1 78.8 57.1 78 56.9 78 56.9M79.6 62.3C79.4 63.3 78.7 63.1 78.7 63.1 77.9 62.7 78.7 61.5 78.7 61.5 79.9 61.1 79.6 62.3 79.6 62.3M79.9 34.1C79.1 33.7 79.9 32.5 79.9 32.5 81.1 32.1 80.8 33.3 80.8 33.3 80.6 34.3 79.9 34.1 79.9 34.1M81.5 43.5C81.3 44.5 80.6 44.3 80.6 44.3 79.8 43.9 80.6 42.7 80.6 42.7 81.7 42.3 81.5 43.5 81.5 43.5M84.1 53.2C83.9 54.2 83.2 54 83.2 54 82.4 53.6 83.2 52.4 83.2 52.4 84.3 52 84.1 53.2 84.1 53.2M85.3 46.9C85.1 47.9 84.4 47.7 84.4 47.7 83.6 47.3 84.4 46.1 84.4 46.1 85.5 45.6 85.3 46.9 85.3 46.9M86 38.3C85.8 39.3 85.1 39.1 85.1 39.1 84.3 38.7 85.1 37.5 85.1 37.5 86.2 37.1 86 38.3 86 38.3" fill="#a63b08" data-fill-palette-color="accent"></path></g></svg></g></svg></g><g></g></svg></g><defs></defs></svg><rect width="395.52" height="139.0337106694454" fill="none" stroke="none" visibility="hidden"></rect></g></svg>