<svg viewBox="0 0 640 400" data-background-color="#ffffff" preserveAspectRatio="xMidYMid meet" height="400" width="640" xmlns="http://www.w3.org/2000/svg" xmlns:xlink="http://www.w3.org/1999/xlink"><rect width="640" height="400" x="0" y="0" opacity="1" fill="#ffffff" data-fill-palette-color="background" id="background"></rect><g id="tight-bounds" transform="matrix(1,0,0,1,180,60)"><svg viewBox="0 0 280 280" height="280" width="280"><g><svg viewBox="0 0 280 280" height="280" width="280"><g><svg viewBox="0 0 280 280" height="280" width="280"><g id="textblocktransform"><svg viewBox="0 0 280 280" height="280" width="280" id="textblock"><g><svg viewBox="0 0 280 280" height="280" width="280"><g transform="matrix(1,0,0,1,41.00505063388334,41.00505063388334)"><svg viewBox="0 0 197.9898987322333 197.9898987322333" height="197.9898987322333" width="197.9898987322333"><g id="icon-0"><circle r="98.99494936611666" cx="98.99494936611666" cy="98.99494936611666" fill="#aba944" data-fill-palette-color="accent"></circle><svg xmlns="http://www.w3.org/2000/svg" xmlns:xlink="http://www.w3.org/1999/xlink" version="1.1" x="29.698484809834994" y="29.698484809834994" viewBox="10.001710891723633 17.854999542236328 79.89657592773438 67.7449951171875" style="enable-background:new 0 0 100 100;" xml:space="preserve" height="138.59292911256333" width="138.59292911256333" class="icon-o-0" data-fill-palette-color="quaternary" id="o-0"><g fill="#ffffff" data-fill-palette-color="quaternary"><path d="M83.9 23C78.9 18.1 71.5 16.7 61.9 18.8 57.5 19.8 53.5 21.8 50.4 24.7 50.2 24.8 50.1 25 49.9 25.2 49.5 24.8 49.1 24.4 48.6 24 45.7 21.5 42 19.8 38 18.9 28.4 16.7 21 18.1 16 23 8.5 30.2 9.8 42.2 10.7 47 10.7 47.3 10.8 47.5 10.8 47.8 10.9 48.5 11 49.3 11.2 50.2 13.7 60.4 18.3 66.7 22.3 70.5 21.5 73.1 20.9 75.7 20.5 78.4 20.1 82 22.6 85.2 26.2 85.6H27C30.2 85.6 33 83.2 33.4 79.9 33.5 78.9 33.7 78 33.9 77 37 78.1 43.1 79.9 50.6 79.9 55.3 79.9 60.5 79.2 66 77.2 66.2 78 66.3 78.8 66.4 79.6 66.8 82.9 69.6 85.3 72.8 85.3H73.6C77.2 84.9 79.7 81.6 79.3 78.1 79 75.6 78.4 73 77.6 70.5 81.6 66.7 86.2 60.4 88.7 50.2 88.9 49.3 89 48.5 89.1 47.8 89.1 47.5 89.2 47.3 89.2 47 90.1 42.1 91.4 30.2 83.9 23M15.4 41.2C15.2 42.2 14.5 42 14.5 42 13.7 41.6 14.5 40.4 14.5 40.4 15.6 40 15.4 41.2 15.4 41.2M18.8 26.2C20 25.8 19.7 27 19.7 27 19.5 28 18.8 27.8 18.8 27.8 17.9 27.3 18.8 26.2 18.8 26.2M17.8 53.2C17.6 54.2 16.9 54 16.9 54 16.1 53.6 16.9 52.4 16.9 52.4 18 52 17.8 53.2 17.8 53.2M18.8 34.1C18 33.7 18.8 32.5 18.8 32.5 20 32.1 19.7 33.3 19.7 33.3 19.6 34.3 18.8 34.1 18.8 34.1M20.4 46C20.2 47 19.5 46.8 19.5 46.8 18.7 46.4 19.5 45.2 19.5 45.2 20.6 44.8 20.4 46 20.4 46M70.9 25.3C72.1 24.9 71.8 26.1 71.8 26.1 71.6 27.1 70.9 26.9 70.9 26.9 70 26.5 70.9 25.3 70.9 25.3M63.7 23.6C64.9 23.2 64.6 24.4 64.6 24.4 64.4 25.4 63.7 25.2 63.7 25.2 62.8 24.8 63.7 23.6 63.7 23.6M60.4 27.2C61.6 26.8 61.3 28 61.3 28 61.1 29 60.4 28.8 60.4 28.8 59.5 28.4 60.4 27.2 60.4 27.2M54.9 27.2C56.1 26.8 55.8 28 55.8 28 55.6 29 54.9 28.8 54.9 28.8 54 28.4 54.9 27.2 54.9 27.2M54.9 45.2C56.1 44.8 55.8 46 55.8 46 55.6 47 54.9 46.8 54.9 46.8 54 46.4 54.9 45.2 54.9 45.2M52.9 33.4C54.1 33 53.8 34.2 53.8 34.2 53.6 35.2 52.9 35 52.9 35 52 34.5 52.9 33.4 52.9 33.4M49.6 39.5C50.8 39.1 50.5 40.3 50.5 40.3 50.3 41.3 49.6 41.1 49.6 41.1 48.8 40.7 49.6 39.5 49.6 39.5M46.5 31.6C47.7 31.2 47.4 32.4 47.4 32.4 47.2 33.4 46.5 33.2 46.5 33.2 45.6 32.8 46.5 31.6 46.5 31.6M46.5 45.2C47.7 44.8 47.4 46 47.4 46 47.2 47 46.5 46.8 46.5 46.8 45.6 46.4 46.5 45.2 46.5 45.2M43.5 25.3C44.7 24.9 44.4 26.1 44.4 26.1 44.2 27.1 43.5 26.9 43.5 26.9 42.6 26.5 43.5 25.3 43.5 25.3M37.4 25.3C38.6 24.9 38.3 26.1 38.3 26.1 38.1 27.1 37.4 26.9 37.4 26.9 36.5 26.5 37.4 25.3 37.4 25.3M31.3 22.7C32.5 22.3 32.2 23.5 32.2 23.5 32 24.5 31.3 24.3 31.3 24.3 30.4 23.9 31.3 22.7 31.3 22.7M26 26.2C27.2 25.8 26.9 27 26.9 27 26.7 28 26 27.8 26 27.8 25.1 27.3 26 26.2 26 26.2M23.1 56.1C22.9 57.1 22.2 56.9 22.2 56.9 21.4 56.5 22.2 55.3 22.2 55.3 23.3 54.9 23.1 56.1 23.1 56.1M24.4 64C24.2 65 23.5 64.8 23.5 64.8 22.7 64.4 23.5 63.2 23.5 63.2 24.6 62.8 24.4 64 24.4 64M27.3 69C26.5 68.6 27.3 67.4 27.3 67.4 28.5 67 28.2 68.2 28.2 68.2 28.1 69.2 27.3 69 27.3 69M28.9 76C28.7 77 28 76.8 28 76.8 27.2 76.4 28 75.2 28 75.2 29.2 74.8 28.9 76 28.9 76M28.2 57.4C26.5 54.9 24.9 51.6 23.8 47.1 23.8 46.9 23.7 46.5 23.7 46.1 23.6 45.6 23.6 45.1 23.5 44.6 22.6 40 22.7 34.5 25 32.3 27.2 30.1 32.4 30.9 35.2 31.5 37.2 31.9 38.9 32.8 40.2 33.9 41.4 34.9 42.3 36.1 42.8 37.3 39.6 41 33.3 48.4 28.2 57.4M40.8 46.8C40 46.4 40.8 45.2 40.8 45.2 42 44.8 41.7 46 41.7 46 41.6 47 40.8 46.8 40.8 46.8M41.1 53.2C40.9 54.2 40.2 54 40.2 54 39.4 53.6 40.2 52.4 40.2 52.4 41.3 52 41.1 53.2 41.1 53.2M34.7 56.1C34.5 57.1 33.8 56.9 33.8 56.9 33 56.5 33.8 55.3 33.8 55.3 35 54.9 34.7 56.1 34.7 56.1M33.8 63.1C33 62.7 33.8 61.5 33.8 61.5 35 61.1 34.7 62.3 34.7 62.3 34.6 63.3 33.8 63.1 33.8 63.1M35.4 70.7C35.2 71.7 34.5 71.5 34.5 71.5 33.7 71.1 34.5 69.9 34.5 69.9 35.6 69.5 35.4 70.7 35.4 70.7M43.1 75.1C42.9 76.1 42.2 75.9 42.2 75.9 41.4 75.5 42.2 74.3 42.2 74.3 43.3 73.9 43.1 75.1 43.1 75.1M48.1 71.5C47.9 72.5 47.2 72.3 47.2 72.3 46.4 71.9 47.2 70.7 47.2 70.7 48.3 70.3 48.1 71.5 48.1 71.5M55.1 75.1C54.9 76.1 54.2 75.9 54.2 75.9 53.4 75.5 54.2 74.3 54.2 74.3 55.4 73.9 55.1 75.1 55.1 75.1M60.6 70.7C60.4 71.7 59.7 71.5 59.7 71.5 58.9 71.1 59.7 69.9 59.7 69.9 60.9 69.5 60.6 70.7 60.6 70.7M38.9 64.9C42.3 58.8 46.5 53.1 50 48.9 53.6 53.2 57.9 59 61.2 65.1 51.4 68.5 42.4 66.2 38.9 64.9M59.7 46.1C60.9 45.7 60.6 46.9 60.6 46.9 60.4 47.9 59.7 47.7 59.7 47.7 58.8 47.3 59.7 46.1 59.7 46.1M61.3 54C61.1 55 60.4 54.8 60.4 54.8 59.6 54.4 60.4 53.2 60.4 53.2 61.5 52.8 61.3 54 61.3 54M66 73.4C65.8 74.4 65.1 74.2 65.1 74.2 64.3 73.8 65.1 72.6 65.1 72.6 66.2 72.2 66 73.4 66 73.4M66.6 63.2C66.4 64.2 65.7 64 65.7 64 64.9 63.6 65.7 62.4 65.7 62.4 66.9 61.9 66.6 63.2 66.6 63.2M66.4 56.9C65.6 56.5 66.4 55.3 66.4 55.3 67.6 54.9 67.3 56.1 67.3 56.1 67.1 57.1 66.4 56.9 66.4 56.9M68.6 68.2C68.4 69.2 67.7 69 67.7 69 66.9 68.6 67.7 67.4 67.7 67.4 68.8 67 68.6 68.2 68.6 68.2M74.2 75.1C74 76.1 73.3 75.9 73.3 75.9 72.5 75.5 73.3 74.3 73.3 74.3 74.4 73.9 74.2 75.1 74.2 75.1M75.5 65.8C75.3 66.8 74.6 66.6 74.6 66.6 73.8 66.2 74.6 65 74.6 65 75.8 64.6 75.5 65.8 75.5 65.8M76.5 44.6C76.4 45.1 76.3 45.6 76.3 46.1 76.3 46.5 76.2 46.9 76.2 47.1 75.1 51.6 73.5 54.9 71.9 57.4 66.9 48.6 60.6 41.2 57.2 37.4 57.7 36.3 58.4 35.3 59.4 34.3 60.8 33 62.7 32.1 64.9 31.6 67.7 31 72.8 30.2 75.1 32.4 77.1 34.5 77.3 40 76.5 44.6M77.4 26.9C76.6 26.5 77.4 25.3 77.4 25.3 78.6 24.9 78.3 26.1 78.3 26.1 78.1 27.1 77.4 26.9 77.4 26.9M78 56.9C77.2 56.5 78 55.3 78 55.3 79.2 54.9 78.9 56.1 78.9 56.1 78.8 57.1 78 56.9 78 56.9M79.6 62.3C79.4 63.3 78.7 63.1 78.7 63.1 77.9 62.7 78.7 61.5 78.7 61.5 79.9 61.1 79.6 62.3 79.6 62.3M79.9 34.1C79.1 33.7 79.9 32.5 79.9 32.5 81.1 32.1 80.8 33.3 80.8 33.3 80.6 34.3 79.9 34.1 79.9 34.1M81.5 43.5C81.3 44.5 80.6 44.3 80.6 44.3 79.8 43.9 80.6 42.7 80.6 42.7 81.7 42.3 81.5 43.5 81.5 43.5M84.1 53.2C83.9 54.2 83.2 54 83.2 54 82.4 53.6 83.2 52.4 83.2 52.4 84.3 52 84.1 53.2 84.1 53.2M85.3 46.9C85.1 47.9 84.4 47.7 84.4 47.7 83.6 47.3 84.4 46.1 84.4 46.1 85.5 45.6 85.3 46.9 85.3 46.9M86 38.3C85.8 39.3 85.1 39.1 85.1 39.1 84.3 38.7 85.1 37.5 85.1 37.5 86.2 37.1 86 38.3 86 38.3" fill="#ffffff" data-fill-palette-color="quaternary"></path></g></svg></g></svg></g><g id="text-0"><path d="M16.364 88.837l-0.863 2.455c-1.463-0.268-2.758-0.28-3.887-0.036-1.126 0.238-2.079 0.713-2.858 1.426-0.779 0.712-1.361 1.656-1.745 2.831v0c-0.373 1.06-0.403 2.098-0.092 3.117 0.313 1.012 0.937 1.682 1.871 2.01v0c0.771 0.271 1.515 0.29 2.231 0.056 0.723-0.232 1.488-0.706 2.297-1.422 0.808-0.716 1.737-1.654 2.786-2.814v0c0.701-0.81 1.473-1.624 2.316-2.441 0.835-0.812 1.743-1.522 2.724-2.127 0.973-0.602 2.001-1.001 3.084-1.198 1.086-0.203 2.234-0.092 3.444 0.334v0c1.461 0.514 2.623 1.366 3.486 2.557 0.857 1.189 1.352 2.606 1.485 4.252 0.127 1.644-0.144 3.415-0.812 5.315v0c-0.348 0.991-0.878 2.006-1.589 3.045-0.713 1.046-1.545 1.968-2.495 2.768v0l1.588 0.442-1.002 2.85-8.671-3.049 0.86-2.445c2.196 0.385 4.041 0.139 5.533-0.739 1.486-0.879 2.534-2.188 3.145-3.924v0c0.313-0.89 0.427-1.724 0.34-2.501-0.086-0.777-0.329-1.447-0.73-2.011-0.403-0.557-0.915-0.945-1.535-1.163v0c-0.865-0.304-1.687-0.251-2.465 0.158-0.782 0.401-1.529 0.984-2.242 1.748-0.712 0.764-1.419 1.551-2.12 2.362v0c-0.914 1.017-1.83 1.938-2.747 2.764-0.92 0.832-1.871 1.505-2.855 2.018-0.984 0.514-2.013 0.817-3.089 0.911-1.076 0.094-2.218-0.072-3.428-0.497v0c-0.771-0.271-1.519-0.7-2.243-1.286-0.724-0.586-1.319-1.337-1.785-2.255-0.475-0.914-0.739-2.007-0.792-3.279-0.055-1.266 0.204-2.714 0.778-4.345v0c0.348-0.991 0.879-2.019 1.592-3.085 0.709-1.075 1.509-1.928 2.4-2.559v0l-1.576-0.385 1.018-2.897z" fill="#556970" data-fill-palette-color="primary"></path><path d="M38.364 54.339l-1.515 2.102c-1.148-0.828-2.215-1.354-3.199-1.58-0.984-0.226-1.874-0.179-2.669 0.141-0.792 0.314-1.468 0.883-2.03 1.707v0l-1.101 1.529 14.953 10.777c0.577 0.416 1.122 0.825 1.635 1.227 0.518 0.406 0.899 0.73 1.143 0.971v0c0.217-0.392 0.522-0.873 0.916-1.441 0.397-0.574 0.672-0.966 0.823-1.176v0l2.459 1.772-6.709 9.308-2.103-1.515c0.332-0.506 0.563-0.963 0.692-1.369 0.129-0.407 0.067-0.837-0.188-1.291-0.251-0.459-0.799-0.994-1.646-1.604v0l-15.277-11.01-1.061 1.472c-0.849 1.223-1.124 2.475-0.826 3.755 0.3 1.289 1.312 2.555 3.038 3.799v0l-1.515 2.102-7.098-5.36 13.93-19.329z" fill="#556970" data-fill-palette-color="primary"></path><path d="M70.169 50.931l-9.238 7.135-1.585-2.051c0.462-0.391 0.813-0.763 1.053-1.116 0.24-0.353 0.305-0.785 0.195-1.297-0.115-0.507-0.491-1.174-1.129-1.999v0l-9.207-11.922c-0.431-0.558-0.831-1.109-1.202-1.654-0.367-0.54-0.645-0.955-0.835-1.244v0c-0.315 0.277-0.718 0.614-1.21 1.01-0.486 0.392-0.837 0.688-1.052 0.888v0l-1.852-2.398c1.457-1.158 2.921-2.306 4.394-3.444 1.473-1.137 2.939-2.283 4.4-3.436v0c1.809-1.431 3.556-2.452 5.24-3.065 1.684-0.603 3.266-0.696 4.748-0.279 1.477 0.412 2.835 1.463 4.072 3.153v0c0.653 0.889 1.082 1.885 1.287 2.987 0.204 1.102 0.138 2.261-0.198 3.478-0.327 1.218-0.967 2.477-1.921 3.776v0c0.52-0.142 1.117-0.174 1.789-0.097 0.672 0.077 1.303 0.22 1.893 0.428v0l3.141 1.05c1.002 0.351 1.84 0.599 2.513 0.742 0.673 0.143 1.261 0.176 1.764 0.099 0.507-0.072 0.997-0.275 1.471-0.607v0l1.584 2.051-5.136 3.967c-0.581 0.02-1.249-0.085-2.007-0.315-0.757-0.23-1.597-0.518-2.518-0.863v0l-5.186-1.953c-0.594-0.204-1.101-0.376-1.519-0.515-0.418-0.139-0.814-0.232-1.186-0.28v0c-0.331 0.256-0.61 0.471-0.837 0.646-0.231 0.179-0.492 0.38-0.781 0.603v0l2.572 3.329c0.451 0.584 0.865 1.142 1.242 1.674 0.381 0.537 0.654 0.956 0.819 1.256v0c0.215-0.2 0.495-0.441 0.839-0.723 0.344-0.283 0.683-0.561 1.017-0.836 0.334-0.275 0.572-0.467 0.714-0.577v0zM60.875 41.017v0c1.162-0.898 1.964-1.79 2.405-2.676 0.441-0.886 0.553-1.8 0.338-2.743-0.21-0.946-0.723-1.948-1.54-3.005v0c-0.768-0.994-1.531-1.656-2.289-1.986-0.749-0.328-1.465-0.456-2.147-0.382-0.683 0.083-1.293 0.272-1.829 0.568-0.531 0.301-0.952 0.572-1.262 0.812v0c-0.437 0.337-0.771 0.676-1.005 1.015-0.229 0.345-0.289 0.756-0.18 1.235 0.104 0.482 0.436 1.087 0.997 1.812v0l4.929 6.383c0.242-0.154 0.5-0.315 0.773-0.484 0.272-0.159 0.542-0.343 0.81-0.549z" fill="#556970" data-fill-palette-color="primary"></path><path d="M101.666 34.969v0c-2.336 0.849-4.466 1.177-6.388 0.984-1.929-0.19-3.635-0.762-5.119-1.715-1.491-0.95-2.762-2.143-3.814-3.578-1.049-1.429-1.865-2.943-2.445-4.542v0c-0.565-1.555-0.87-3.223-0.916-5.002-0.045-1.779 0.224-3.529 0.809-5.247 0.591-1.721 1.55-3.285 2.877-4.694 1.329-1.402 3.09-2.501 5.283-3.298v0c2.243-0.815 4.323-1.111 6.242-0.888 1.928 0.226 3.651 0.823 5.169 1.792 1.523 0.96 2.824 2.138 3.904 3.535 1.078 1.39 1.899 2.863 2.464 4.418v0c0.554 1.524 0.852 3.173 0.895 4.946 0.041 1.767-0.229 3.516-0.809 5.247-0.587 1.733-1.542 3.307-2.867 4.722-1.331 1.417-3.093 2.523-5.285 3.32zM101.098 32.12v0c1.281-0.465 2.238-1.167 2.874-2.104 0.633-0.944 1.025-2.016 1.176-3.216 0.153-1.194 0.121-2.43-0.096-3.71-0.209-1.275-0.518-2.477-0.929-3.608v0c-0.617-1.699-1.331-3.197-2.141-4.493-0.804-1.299-1.701-2.348-2.692-3.148-0.982-0.796-2.049-1.299-3.201-1.51-1.151-0.211-2.363-0.071-3.634 0.418v0c-1.246 0.481-2.182 1.206-2.805 2.176-0.626 0.963-1.012 2.051-1.159 3.263-0.146 1.213-0.11 2.462 0.11 3.746 0.213 1.287 0.525 2.496 0.935 3.627v0c0.422 1.162 1.001 2.348 1.738 3.558 0.73 1.212 1.59 2.293 2.578 3.243 0.982 0.951 2.084 1.612 3.307 1.98 1.221 0.363 2.534 0.289 3.939-0.222z" fill="#556970" data-fill-palette-color="primary"></path><path d="M148.852 27.981l-3.338 0.096-13.036-15.714c-0.352-0.435-0.717-0.894-1.096-1.374-0.38-0.488-0.763-0.989-1.15-1.503v0l-0.04 0.001 0.428 12.174c0.02 0.711 0.027 1.392 0.019 2.044-0.008 0.658-0.03 1.158-0.067 1.498v0c0.417-0.065 0.944-0.113 1.582-0.145 0.644-0.032 1.096-0.051 1.354-0.058v0l0.087 3.029-8.958 0.256-0.075-2.591c0.604-0.044 1.106-0.138 1.508-0.282 0.401-0.144 0.708-0.456 0.921-0.934 0.206-0.478 0.294-1.238 0.264-2.281v0l-0.511-15.055c-0.02-0.704-0.026-1.385-0.018-2.044 0.008-0.652 0.034-1.151 0.076-1.498v0c-0.418 0.039-0.949 0.074-1.592 0.105-0.637 0.032-1.102 0.065-1.394 0.1v0l-0.086-3.029 6.168-0.177 12.462 14.833c0.682 0.818 1.247 1.523 1.696 2.115 0.449 0.586 0.836 1.096 1.161 1.533v0l0.039-0.002-0.356-12.455c-0.02-0.704-0.026-1.385-0.019-2.044 0.008-0.652 0.02-1.151 0.037-1.497v0c-0.418 0.039-0.942 0.073-1.572 0.104-0.624 0.031-1.082 0.064-1.374 0.1v0l-0.087-3.03 8.959-0.256 0.074 2.601c-0.571 0.043-1.063 0.133-1.478 0.271-0.421 0.145-0.735 0.45-0.941 0.915-0.213 0.465-0.304 1.235-0.273 2.312v0z" fill="#556970" data-fill-palette-color="primary"></path><path d="M189.48 18.172l-2.486-0.732c0.399-1.358 0.542-2.539 0.428-3.542-0.114-1.003-0.453-1.827-1.018-2.471-0.559-0.642-1.321-1.092-2.285-1.347v0l-1.807-0.532-5.202 17.683c-0.201 0.682-0.406 1.332-0.614 1.95-0.211 0.624-0.39 1.091-0.537 1.4v0c0.442 0.075 0.997 0.203 1.663 0.386 0.673 0.184 1.134 0.313 1.383 0.386v0l-0.855 2.907-11.008-3.237 0.732-2.487c0.588 0.145 1.095 0.211 1.521 0.198 0.426-0.013 0.811-0.215 1.155-0.606 0.35-0.389 0.672-1.084 0.966-2.085v0l5.314-18.066-1.741-0.512c-1.436-0.395-2.708-0.239-3.816 0.468-1.117 0.711-1.975 2.086-2.575 4.126v0l-2.486-0.731 2.7-8.475 22.857 6.723z" fill="#556970" data-fill-palette-color="primary"></path><path d="M217.459 22.65l-1.298 2.255c-0.514-0.265-0.985-0.448-1.411-0.547-0.429-0.094-0.853 0.004-1.271 0.292-0.425 0.285-0.905 0.894-1.443 1.827v0l-7.507 13.047c-0.355 0.616-0.706 1.2-1.054 1.751-0.351 0.557-0.634 0.969-0.849 1.237v0c0.389 0.163 0.867 0.399 1.432 0.709 0.565 0.31 0.96 0.53 1.185 0.659v0l-1.511 2.626-9.781-5.627 1.292-2.247c0.537 0.279 1.015 0.461 1.433 0.548 0.418 0.087 0.842-0.018 1.273-0.314 0.425-0.3 0.898-0.902 1.419-1.806v0l7.512-13.056c0.351-0.611 0.708-1.191 1.071-1.741 0.359-0.545 0.637-0.96 0.832-1.247v0c-0.376-0.186-0.841-0.43-1.395-0.733-0.548-0.3-0.956-0.511-1.222-0.634v0l1.511-2.627z" fill="#556970" data-fill-palette-color="primary"></path><path d="M239.932 41.848l-1.855 1.824c-0.42-0.389-0.821-0.688-1.205-0.898-0.393-0.21-0.83-0.232-1.31-0.067-0.485 0.16-1.112 0.618-1.88 1.373v0l-7.704 7.577c-1.18 1.16-2.021 2.239-2.522 3.236-0.511 0.997-0.78 1.923-0.806 2.778-0.031 0.85 0.125 1.634 0.467 2.351 0.337 0.712 0.771 1.357 1.302 1.935v0c0.973 1.065 2.032 1.753 3.176 2.064 1.149 0.306 2.364 0.215 3.647-0.273 1.287-0.492 2.622-1.419 4.006-2.779v0l7.342-7.221c0.502-0.494 0.995-0.965 1.478-1.412 0.483-0.438 0.866-0.759 1.15-0.963v0c-0.313-0.28-0.697-0.643-1.154-1.088-0.462-0.45-0.802-0.768-1.022-0.953v0l2.161-2.126 6.396 6.504-1.855 1.824c-0.424-0.394-0.828-0.695-1.212-0.905-0.388-0.205-0.825-0.228-1.311-0.068-0.481 0.165-1.105 0.625-1.872 1.381v0l-7.008 6.892c-1.606 1.58-3.164 2.725-4.674 3.437-1.505 0.707-2.953 1.045-4.343 1.014-1.391-0.03-2.709-0.37-3.954-1.02-1.245-0.649-2.419-1.536-3.523-2.658v0c-1.543-1.568-2.604-3.097-3.184-4.588-0.585-1.485-0.772-2.927-0.563-4.325 0.204-1.394 0.706-2.732 1.506-4.013 0.8-1.281 1.797-2.509 2.992-3.683v0l6.787-6.676c0.502-0.494 1-0.96 1.492-1.397 0.492-0.428 0.871-0.754 1.136-0.978v0c-0.313-0.28-0.693-0.638-1.14-1.074-0.452-0.441-0.788-0.754-1.007-0.939v0l2.16-2.125z" fill="#556970" data-fill-palette-color="primary"></path><path d="M244.35 97.741l-1.519-3.328c1.607-1.712 3.205-3.413 4.795-5.103 1.595-1.692 3.184-3.389 4.767-5.09v0c0.365-0.4 0.891-0.936 1.578-1.608 0.684-0.678 1.492-1.422 2.422-2.233 0.924-0.809 1.898-1.604 2.922-2.385v0c-1.314 0.658-2.557 1.265-3.728 1.821-1.168 0.562-2.293 1.075-3.373 1.539v0c-0.526 0.24-1.064 0.486-1.615 0.737-0.55 0.251-1.094 0.492-1.631 0.723-0.541 0.239-1.08 0.482-1.619 0.727-0.538 0.246-1.079 0.492-1.623 0.741v0c-0.647 0.295-1.275 0.56-1.884 0.794-0.615 0.237-1.088 0.401-1.419 0.494v0c0.233 0.383 0.488 0.862 0.766 1.437 0.28 0.581 0.475 0.992 0.585 1.234v0l-2.757 1.258-3.725-8.163 2.358-1.075c0.275 0.539 0.557 0.966 0.847 1.279 0.289 0.314 0.695 0.475 1.218 0.485 0.52 0.004 1.255-0.211 2.205-0.645v0l13.803-6.035c0.652-0.268 1.283-0.527 1.892-0.776 0.604-0.246 1.068-0.429 1.393-0.548v0c-0.198-0.37-0.434-0.839-0.708-1.408-0.274-0.569-0.483-0.978-0.625-1.227v0l2.757-1.258 3.608 7.909-11.386 11.715c-0.445 0.466-0.974 0.996-1.587 1.59-0.607 0.591-1.194 1.162-1.76 1.713-0.576 0.548-1.038 0.974-1.389 1.28v0l0.017 0.036c0.975-0.072 1.915-0.158 2.819-0.257 0.913-0.095 1.804-0.169 2.671-0.221v0c2.904-0.2 5.793-0.401 8.667-0.602 2.874-0.201 5.753-0.401 8.636-0.598v0l3.77 8.262-2.367 1.08c-0.261-0.509-0.542-0.94-0.842-1.293-0.306-0.35-0.714-0.532-1.225-0.547-0.508-0.009-1.247 0.222-2.215 0.693v0l-13.451 6.784c-0.625 0.344-1.245 0.626-1.859 0.848-0.621 0.225-1.096 0.383-1.426 0.476v0c0.233 0.383 0.49 0.865 0.769 1.446 0.277 0.575 0.471 0.983 0.581 1.225v0l-2.757 1.258-4.54-9.949 2.358-1.076c0.275 0.539 0.563 0.978 0.863 1.315 0.3 0.338 0.712 0.512 1.235 0.522 0.52 0.004 1.244-0.235 2.172-0.717v0l7.453-3.741c0.29-0.132 0.775-0.383 1.454-0.751 0.679-0.368 1.434-0.764 2.264-1.187 0.83-0.423 1.611-0.816 2.344-1.179v0c-0.202 0.005-0.397 0.01-0.585 0.015-0.184-0.004-0.372 0.009-0.563 0.038v0z" fill="#556970" data-fill-palette-color="primary"></path><path d="M10.626 143.734c0-1.782 1.444-3.226 3.227-3.226 1.782 0 3.226 1.444 3.226 3.226 0 1.782-1.444 3.226-3.226 3.226-1.782 0-3.226-1.444-3.227-3.226z" fill="#556970" data-fill-palette-color="primary"></path><path d="M261.846 143.734c0-1.782 1.444-3.226 3.226-3.226 1.782 0 3.226 1.444 3.226 3.226 0 1.782-1.444 3.226-3.226 3.226-1.782 0-3.226-1.444-3.226-3.226z" fill="#556970" data-fill-palette-color="primary"></path></g><g id="text-1"><path d="M33.263 192.861l-0.868-2.463c1.318-0.718 2.343-1.53 3.073-2.436 0.733-0.9 1.182-1.875 1.347-2.927 0.159-1.049 0.019-2.156-0.419-3.319v0c-0.378-1.072-1.008-1.91-1.891-2.515-0.88-0.599-1.797-0.73-2.749-0.395v0c-0.771 0.272-1.364 0.727-1.781 1.367-0.424 0.636-0.725 1.492-0.902 2.57-0.186 1.073-0.323 2.393-0.411 3.96v0c-0.04 1.085-0.136 2.215-0.286 3.388-0.144 1.171-0.412 2.301-0.803 3.391-0.385 1.087-0.939 2.054-1.662 2.9-0.726 0.841-1.699 1.476-2.922 1.907v0c-1.473 0.519-2.923 0.583-4.351 0.191-1.428-0.392-2.711-1.194-3.849-2.406-1.145-1.21-2.056-2.774-2.732-4.692v0c-0.351-0.997-0.574-2.13-0.67-3.4-0.095-1.27-0.025-2.521 0.21-3.752v0l-1.53 0.666-1.014-2.877 8.753-3.085 0.868 2.464c-1.97 1.089-3.262 2.45-3.877 4.083-0.615 1.633-0.616 3.321-0.002 5.063v0c0.316 0.896 0.753 1.627 1.311 2.191 0.562 0.556 1.179 0.927 1.851 1.113 0.663 0.182 1.308 0.163 1.935-0.058v0c0.871-0.307 1.485-0.865 1.841-1.675 0.36-0.817 0.578-1.75 0.652-2.798 0.081-1.05 0.143-2.115 0.185-3.194v0c0.073-1.372 0.21-2.674 0.409-3.907 0.193-1.231 0.518-2.36 0.974-3.387 0.447-1.031 1.063-1.921 1.849-2.67 0.784-0.755 1.787-1.348 3.009-1.78v0c0.771-0.272 1.629-0.405 2.575-0.4 0.937 0.001 1.88 0.215 2.827 0.642 0.951 0.419 1.847 1.111 2.687 2.076 0.847 0.963 1.561 2.269 2.141 3.917v0c0.351 0.997 0.585 2.14 0.702 3.431 0.117 1.291 0.026 2.464-0.271 3.52v0l1.48-0.69 1.027 2.915z" fill="#556970" data-fill-palette-color="primary"></path><path d="M52.811 222.908l-1.533-2.126c1.159-0.836 2.004-1.687 2.534-2.553 0.532-0.875 0.772-1.741 0.721-2.597-0.05-0.865-0.38-1.697-0.989-2.495v0l-1.113-1.545-15.088 10.882c-0.577 0.416-1.142 0.808-1.697 1.174-0.549 0.363-0.979 0.624-1.291 0.784v0c0.307 0.335 0.671 0.782 1.09 1.34 0.423 0.564 0.71 0.951 0.862 1.161v0l-2.474 1.784-6.77-9.387 2.126-1.533c0.37 0.479 0.729 0.847 1.078 1.102 0.349 0.256 0.783 0.336 1.304 0.24 0.511-0.098 1.198-0.458 2.06-1.08v0l15.403-11.108-1.067-1.48c-0.9-1.203-2.014-1.866-3.341-1.991-1.329-0.115-2.861 0.453-4.597 1.705v0l-1.527-2.118 7.385-5.081 14.053 19.486z" fill="#556970" data-fill-palette-color="primary"></path><path d="M58.121 252.162l-9.318-7.197 1.602-2.075c0.491 0.354 0.94 0.604 1.348 0.751 0.407 0.147 0.844 0.098 1.31-0.147 0.467-0.235 1.026-0.774 1.676-1.615v0l9.28-12.016c0.435-0.563 0.871-1.095 1.309-1.597 0.434-0.496 0.767-0.873 0.999-1.13v0c-0.348-0.235-0.778-0.542-1.291-0.922-0.508-0.375-0.886-0.642-1.134-0.799v0l1.865-2.415c1.5 1.125 2.994 2.262 4.482 3.412 1.483 1.146 2.975 2.281 4.474 3.405v0c1.857 1.401 3.298 2.845 4.324 4.334 1.021 1.494 1.517 3.015 1.488 4.563-0.029 1.548-0.71 3.142-2.043 4.783v0c-0.699 0.862-1.561 1.532-2.585 2.009-1.018 0.481-2.166 0.716-3.441 0.705-1.272-0.017-2.664-0.323-4.177-0.92v0c0.274 0.472 0.456 1.045 0.548 1.72 0.097 0.679 0.119 1.33 0.066 1.953v0l-0.224 3.341c-0.086 1.068-0.11 1.947-0.074 2.639 0.027 0.693 0.143 1.277 0.346 1.753 0.198 0.472 0.522 0.895 0.974 1.268v0l-1.603 2.075-5.176-3.997c-0.167-0.566-0.238-1.246-0.212-2.041 0.035-0.796 0.1-1.69 0.195-2.683v0l0.587-5.555c0.051-0.632 0.089-1.17 0.113-1.613 0.033-0.445 0.025-0.854-0.023-1.227v0c-0.337-0.26-0.621-0.479-0.852-0.658-0.226-0.175-0.487-0.376-0.781-0.603v0l-2.596 3.361c-0.451 0.584-0.89 1.131-1.317 1.64-0.423 0.504-0.761 0.877-1.015 1.118v0c0.248 0.158 0.552 0.367 0.913 0.629 0.366 0.266 0.726 0.527 1.081 0.785 0.35 0.254 0.599 0.437 0.746 0.551v0zM65.423 240.57v0c1.173 0.906 2.248 1.459 3.227 1.661 0.978 0.201 1.9 0.078 2.766-0.37 0.861-0.452 1.704-1.212 2.529-2.279v0c0.776-1.005 1.23-1.913 1.363-2.726 0.131-0.822 0.07-1.554-0.183-2.194-0.254-0.65-0.592-1.196-1.013-1.64-0.427-0.447-0.798-0.793-1.114-1.036v0c-0.437-0.337-0.853-0.575-1.25-0.714-0.392-0.134-0.81-0.088-1.255 0.14-0.44 0.222-0.943 0.699-1.507 1.43v0l-4.973 6.438c0.215 0.2 0.434 0.411 0.657 0.634 0.228 0.227 0.479 0.445 0.753 0.656z" fill="#556970" data-fill-palette-color="primary"></path><path d="M94.488 272.229v0c-2.355-0.856-4.214-1.984-5.579-3.386-1.361-1.393-2.311-2.94-2.852-4.643-0.535-1.7-0.743-3.442-0.626-5.223 0.113-1.79 0.463-3.491 1.049-5.103v0c0.57-1.568 1.414-3.054 2.532-4.457 1.114-1.412 2.456-2.593 4.025-3.544 1.566-0.944 3.321-1.53 5.263-1.757 1.934-0.223 4.006 0.067 6.217 0.87v0c2.261 0.822 4.064 1.94 5.41 3.356 1.337 1.419 2.282 2.993 2.834 4.722 0.55 1.735 0.792 3.491 0.726 5.27-0.071 1.77-0.391 3.439-0.961 5.007v0c-0.558 1.537-1.393 3.005-2.503 4.405-1.116 1.398-2.46 2.574-4.03 3.53-1.573 0.963-3.329 1.562-5.268 1.798-1.947 0.24-4.026-0.042-6.237-0.845zM95.891 269.652v0c1.293 0.47 2.488 0.547 3.586 0.232 1.1-0.322 2.097-0.896 2.992-1.723 0.888-0.83 1.664-1.806 2.327-2.931 0.663-1.124 1.201-2.254 1.614-3.39v0c0.624-1.718 1.044-3.34 1.26-4.867 0.22-1.518 0.204-2.906-0.046-4.164-0.241-1.262-0.739-2.344-1.492-3.247-0.76-0.906-1.787-1.583-3.08-2.032v0c-1.277-0.436-2.47-0.481-3.579-0.134-1.113 0.338-2.116 0.928-3.009 1.77-0.899 0.84-1.683 1.828-2.35 2.964-0.661 1.139-1.2 2.279-1.615 3.423v0c-0.425 1.168-0.748 2.458-0.971 3.868-0.217 1.413-0.25 2.808-0.1 4.185 0.144 1.375 0.569 2.597 1.276 3.668 0.707 1.07 1.77 1.863 3.187 2.378z" fill="#556970" data-fill-palette-color="primary"></path><path d="M148.346 280l-3.369-0.097-12.216-16.579c-0.332-0.462-0.674-0.947-1.025-1.456-0.357-0.516-0.715-1.041-1.072-1.577v0l-0.04-0.001-0.275 12.289c-0.021 0.711-0.054 1.398-0.099 2.062-0.046 0.657-0.1 1.157-0.163 1.501v0c0.427-0.041 0.962-0.059 1.607-0.054 0.651 0.006 1.11 0.012 1.376 0.02v0l-0.088 3.049-9.038-0.261 0.075-2.62c0.605-0.002 1.115-0.064 1.531-0.185 0.416-0.121 0.74-0.417 0.974-0.89 0.239-0.465 0.375-1.229 0.405-2.292v0l0.358-15.178c0.021-0.711 0.054-1.398 0.1-2.062 0.046-0.657 0.1-1.157 0.163-1.501v0c-0.419 0.014-0.955 0.019-1.606 0.013-0.645-0.005-1.114 0.001-1.407 0.02v0l0.088-3.05 6.218 0.18 11.685 15.646c0.64 0.863 1.17 1.606 1.591 2.23 0.414 0.617 0.774 1.156 1.081 1.617v0l0.04 0.001 0.362-12.565c0.021-0.711 0.054-1.398 0.1-2.062 0.046-0.657 0.087-1.158 0.123-1.502v0c-0.426 0.014-0.955 0.019-1.586 0.014-0.638-0.005-1.1 0.001-1.387 0.019v0l0.088-3.049 9.028 0.261-0.075 2.611c-0.579 0.01-1.083 0.075-1.512 0.195-0.422 0.121-0.753 0.41-0.992 0.869-0.239 0.452-0.374 1.219-0.406 2.302v0z" fill="#556970" data-fill-palette-color="primary"></path><path d="M184.56 252.307l-2.515 0.738c-0.403-1.371-0.924-2.451-1.565-3.239-0.649-0.793-1.385-1.308-2.209-1.543-0.833-0.24-1.726-0.206-2.682 0.102v0l-1.827 0.536 5.243 17.848c0.2 0.682 0.382 1.346 0.543 1.991 0.16 0.639 0.263 1.131 0.309 1.478v0c0.419-0.178 0.961-0.372 1.627-0.581 0.672-0.211 1.133-0.353 1.381-0.427v0l0.86 2.927-11.105 3.262-0.739-2.516c0.575-0.19 1.041-0.406 1.399-0.65 0.358-0.244 0.578-0.627 0.66-1.149 0.077-0.515-0.034-1.282-0.333-2.302v0l-5.352-18.221-1.751 0.514c-1.434 0.449-2.43 1.278-2.989 2.488-0.551 1.215-0.524 2.849 0.079 4.902v0l-2.506 0.736-2.334-8.655 23.051-6.771z" fill="#556970" data-fill-palette-color="primary"></path><path d="M199.685 234.054l1.3 2.265c-0.488 0.311-0.884 0.63-1.187 0.957-0.297 0.324-0.428 0.743-0.392 1.26 0.032 0.51 0.318 1.235 0.857 2.174v0l7.562 13.177c0.354 0.617 0.685 1.22 0.992 1.81 0.304 0.584 0.52 1.039 0.645 1.365v0c0.342-0.258 0.79-0.553 1.343-0.885 0.558-0.336 0.95-0.568 1.175-0.697v0l1.518 2.646-9.866 5.661-1.305-2.274c0.515-0.318 0.918-0.638 1.209-0.958 0.291-0.32 0.413-0.743 0.365-1.267-0.039-0.522-0.323-1.244-0.852-2.166v0l-7.556-13.169c-0.354-0.617-0.679-1.223-0.976-1.819-0.293-0.591-0.514-1.042-0.662-1.355v0c-0.35 0.231-0.798 0.512-1.345 0.84-0.541 0.326-0.932 0.573-1.172 0.742v0l-1.519-2.646z" fill="#556970" data-fill-palette-color="primary"></path><path d="M214.455 220.822l1.86 1.835c-0.392 0.435-0.688 0.848-0.887 1.239-0.204 0.396-0.22 0.838-0.048 1.326 0.172 0.478 0.644 1.098 1.415 1.859v0l7.763 7.66c1.187 1.172 2.286 2.008 3.294 2.508 1.014 0.496 1.948 0.751 2.804 0.764 0.865 0.013 1.656-0.154 2.372-0.502 0.717-0.357 1.362-0.808 1.937-1.352v0c1.06-0.999 1.737-2.077 2.03-3.235 0.288-1.163 0.174-2.386-0.342-3.67-0.507-1.284-1.458-2.615-2.853-3.992v0l-7.394-7.297c-0.506-0.499-0.986-0.992-1.441-1.477-0.45-0.481-0.779-0.862-0.987-1.143v0c-0.28 0.321-0.641 0.716-1.085 1.185-0.448 0.473-0.763 0.82-0.945 1.042v0l-2.171-2.142 6.456-6.543 1.859 1.835c-0.387 0.43-0.683 0.843-0.887 1.239-0.199 0.391-0.213 0.831-0.041 1.319 0.168 0.483 0.637 1.105 1.408 1.866v0l7.061 6.967c1.618 1.596 2.794 3.149 3.527 4.657 0.743 1.508 1.11 2.963 1.101 4.363-0.009 1.401-0.332 2.735-0.968 4.003-0.635 1.268-1.511 2.468-2.626 3.599v0c-1.559 1.58-3.086 2.673-4.582 3.28-1.486 0.607-2.936 0.818-4.352 0.635-1.411-0.188-2.768-0.677-4.07-1.467-1.307-0.786-2.561-1.771-3.763-2.957v0l-6.833-6.743c-0.506-0.499-0.982-0.997-1.427-1.492-0.44-0.491-0.774-0.867-1.001-1.128v0c-0.28 0.321-0.637 0.712-1.071 1.17-0.439 0.463-0.751 0.809-0.938 1.035v0l-2.171-2.142z" fill="#556970" data-fill-palette-color="primary"></path><path d="M262.938 198.402l-1.536 3.353c-2.368-0.098-4.725-0.194-7.071-0.289-2.338-0.099-4.678-0.191-7.022-0.279v0c-0.542-0.014-1.299-0.061-2.271-0.141-0.963-0.083-2.061-0.209-3.292-0.378-1.231-0.169-2.484-0.385-3.76-0.648v0c1.37 0.569 2.655 1.114 3.857 1.635 1.201 0.521 2.337 1.041 3.407 1.561v0c0.526 0.241 1.066 0.489 1.623 0.743 0.55 0.252 1.094 0.508 1.632 0.77 0.532 0.258 1.07 0.512 1.614 0.761 0.538 0.246 1.085 0.497 1.64 0.751v0c0.646 0.296 1.264 0.601 1.851 0.914 0.582 0.31 1.02 0.559 1.315 0.745v0c0.137-0.427 0.335-0.939 0.594-1.537 0.256-0.592 0.44-1.008 0.551-1.25v0l2.773 1.271-3.766 8.22-2.383-1.092c0.234-0.558 0.376-1.052 0.427-1.482 0.051-0.43-0.094-0.847-0.436-1.252-0.338-0.396-0.99-0.815-1.956-1.258v0l-13.704-6.541c-0.635-0.32-1.25-0.631-1.842-0.932-0.587-0.298-1.032-0.531-1.336-0.7v0c-0.153 0.398-0.355 0.886-0.606 1.466-0.251 0.58-0.425 1.008-0.522 1.285v0l-2.774-1.271 3.65-7.966 16.439 0.952c0.656 0.037 1.41 0.09 2.263 0.159 0.853 0.069 1.678 0.144 2.474 0.224 0.793 0.071 1.42 0.139 1.881 0.203v0l0.016-0.036c-0.696-0.699-1.379-1.363-2.048-1.991-0.672-0.622-1.317-1.25-1.933-1.884v0c-2.066-2.08-4.126-4.149-6.181-6.208-2.054-2.059-4.1-4.126-6.139-6.201v0l3.811-8.32 2.375 1.088c-0.217 0.537-0.359 1.038-0.426 1.504-0.065 0.46 0.068 0.89 0.396 1.29 0.323 0.396 0.982 0.808 1.978 1.235v0l14.061 5.783c0.669 0.248 1.294 0.534 1.876 0.86 0.576 0.322 1.01 0.58 1.302 0.772v0c0.137-0.427 0.335-0.939 0.595-1.537 0.256-0.592 0.44-1.008 0.551-1.25v0l2.773 1.27-4.592 10.024-2.384-1.092c0.237-0.564 0.384-1.07 0.444-1.518 0.062-0.454-0.078-0.884-0.419-1.288-0.335-0.402-0.997-0.8-1.986-1.195v0l-7.773-3.21c-0.29-0.133-0.8-0.337-1.528-0.613-0.729-0.276-1.528-0.59-2.397-0.944-0.875-0.357-1.689-0.693-2.443-1.01v0c0.136 0.15 0.266 0.297 0.39 0.442 0.124 0.144 0.259 0.28 0.406 0.405v0z" fill="#556970" data-fill-palette-color="primary"></path></g></svg></g></svg></g></svg></g></svg></g><defs></defs></svg><rect width="280" height="280" fill="none" stroke="none" visibility="hidden"></rect></g></svg>